<svg style="position: absolute; width: 0; height: 0; overflow: hidden;" version="1.1" xmlns="http://www.w3.org/2000/svg" xmlns:xlink="http://www.w3.org/1999/xlink">
<defs>
<symbol id="icon-external-link" viewBox="0 0 28 28">
<title>external-link</title>
<path class="path1" d="M22 14.5v5q0 1.859-1.32 3.18t-3.18 1.32h-13q-1.859 0-3.18-1.32t-1.32-3.18v-13q0-1.859 1.32-3.18t3.18-1.32h11q0.219 0 0.359 0.141t0.141 0.359v1q0 0.219-0.141 0.359t-0.359 0.141h-11q-1.031 0-1.766 0.734t-0.734 1.766v13q0 1.031 0.734 1.766t1.766 0.734h13q1.031 0 1.766-0.734t0.734-1.766v-5q0-0.219 0.141-0.359t0.359-0.141h1q0.219 0 0.359 0.141t0.141 0.359zM28 1v8q0 0.406-0.297 0.703t-0.703 0.297-0.703-0.297l-2.75-2.75-10.187 10.187q-0.156 0.156-0.359 0.156t-0.359-0.156l-1.781-1.781q-0.156-0.156-0.156-0.359t0.156-0.359l10.187-10.187-2.75-2.75q-0.297-0.297-0.297-0.703t0.297-0.703 0.703-0.297h8q0.406 0 0.703 0.297t0.297 0.703z"></path>
</symbol>
<symbol id="icon-twitter" viewBox="0 0 26 28">
<title>twitter</title>
<path class="path1" d="M25.312 6.375q-1.047 1.531-2.531 2.609 0.016 0.219 0.016 0.656 0 2.031-0.594 4.055t-1.805 3.883-2.883 3.289-4.031 2.281-5.047 0.852q-4.234 0-7.75-2.266 0.547 0.063 1.219 0.063 3.516 0 6.266-2.156-1.641-0.031-2.938-1.008t-1.781-2.492q0.516 0.078 0.953 0.078 0.672 0 1.328-0.172-1.75-0.359-2.898-1.742t-1.148-3.211v-0.063q1.062 0.594 2.281 0.641-1.031-0.688-1.641-1.797t-0.609-2.406q0-1.375 0.688-2.547 1.891 2.328 4.602 3.727t5.805 1.555q-0.125-0.594-0.125-1.156 0-2.094 1.477-3.57t3.57-1.477q2.188 0 3.687 1.594 1.703-0.328 3.203-1.219-0.578 1.797-2.219 2.781 1.453-0.156 2.906-0.781z"></path>
</symbol>
<symbol id="icon-github" viewBox="0 0 24 28">
<title>github</title>
<path class="path1" d="M24 14q0 3.922-2.289 7.055t-5.914 4.336q-0.422 0.078-0.617-0.109t-0.195-0.469v-3.297q0-1.516-0.812-2.219 0.891-0.094 1.602-0.281t1.469-0.609 1.266-1.039 0.828-1.641 0.32-2.352q0-1.891-1.234-3.219 0.578-1.422-0.125-3.187-0.438-0.141-1.266 0.172t-1.437 0.688l-0.594 0.375q-1.453-0.406-3-0.406t-3 0.406q-0.25-0.172-0.664-0.422t-1.305-0.602-1.344-0.211q-0.688 1.766-0.109 3.187-1.234 1.328-1.234 3.219 0 1.328 0.32 2.344t0.82 1.641 1.258 1.047 1.469 0.609 1.602 0.281q-0.625 0.562-0.766 1.609-0.328 0.156-0.703 0.234t-0.891 0.078-1.023-0.336-0.867-0.977q-0.297-0.5-0.758-0.812t-0.773-0.375l-0.313-0.047q-0.328 0-0.453 0.070t-0.078 0.18 0.141 0.219 0.203 0.187l0.109 0.078q0.344 0.156 0.68 0.594t0.492 0.797l0.156 0.359q0.203 0.594 0.688 0.961t1.047 0.469 1.086 0.109 0.867-0.055l0.359-0.063q0 0.594 0.008 1.391t0.008 0.844q0 0.281-0.203 0.469t-0.625 0.109q-3.625-1.203-5.914-4.336t-2.289-7.055q0-3.266 1.609-6.023t4.367-4.367 6.023-1.609 6.023 1.609 4.367 4.367 1.609 6.023z"></path>
</symbol>
<symbol id="icon-envelope" viewBox="0 0 28 28">
<title>envelope</title>
<path class="path1" d="M28 11.094v12.406q0 1.031-0.734 1.766t-1.766 0.734h-23q-1.031 0-1.766-0.734t-0.734-1.766v-12.406q0.688 0.766 1.578 1.359 5.656 3.844 7.766 5.391 0.891 0.656 1.445 1.023t1.477 0.75 1.719 0.383h0.031q0.797 0 1.719-0.383t1.477-0.75 1.445-1.023q2.656-1.922 7.781-5.391 0.891-0.609 1.563-1.359zM28 6.5q0 1.234-0.766 2.359t-1.906 1.922q-5.875 4.078-7.313 5.078-0.156 0.109-0.664 0.477t-0.844 0.594-0.812 0.508-0.898 0.422-0.781 0.141h-0.031q-0.359 0-0.781-0.141t-0.898-0.422-0.812-0.508-0.844-0.594-0.664-0.477q-1.422-1-4.094-2.852t-3.203-2.227q-0.969-0.656-1.828-1.805t-0.859-2.133q0-1.219 0.648-2.031t1.852-0.812h23q1.016 0 1.758 0.734t0.742 1.766z"></path>
</symbol>
<symbol id="icon-linkedin" viewBox="0 0 24 28">
<title>linkedin</title>
<path class="path1" d="M5.453 9.766v15.484h-5.156v-15.484h5.156zM5.781 4.984q0.016 1.141-0.789 1.906t-2.117 0.766h-0.031q-1.281 0-2.063-0.766t-0.781-1.906q0-1.156 0.805-1.914t2.102-0.758 2.078 0.758 0.797 1.914zM24 16.375v8.875h-5.141v-8.281q0-1.641-0.633-2.57t-1.977-0.93q-0.984 0-1.648 0.539t-0.992 1.336q-0.172 0.469-0.172 1.266v8.641h-5.141q0.031-6.234 0.031-10.109t-0.016-4.625l-0.016-0.75h5.141v2.25h-0.031q0.313-0.5 0.641-0.875t0.883-0.812 1.359-0.68 1.789-0.242q2.672 0 4.297 1.773t1.625 5.195z"></path>
</symbol>
<symbol id="icon-android" viewBox="0 0 22 28">
<title>android</title>
<path class="path1" d="M7.703 7.547q0.25 0 0.43-0.18t0.18-0.43-0.18-0.43-0.43-0.18-0.422 0.18-0.172 0.43 0.172 0.43 0.422 0.18zM14.297 7.547q0.25 0 0.422-0.18t0.172-0.43-0.172-0.43-0.422-0.18-0.43 0.18-0.18 0.43 0.18 0.43 0.43 0.18zM1.609 10.422q0.656 0 1.125 0.469t0.469 1.125v6.719q0 0.672-0.461 1.141t-1.133 0.469-1.141-0.469-0.469-1.141v-6.719q0-0.656 0.469-1.125t1.141-0.469zM18.172 10.719v10.406q0 0.719-0.5 1.219t-1.203 0.5h-1.172v3.547q0 0.672-0.469 1.141t-1.141 0.469-1.141-0.469-0.469-1.141v-3.547h-2.156v3.547q0 0.672-0.469 1.141t-1.141 0.469q-0.656 0-1.125-0.469t-0.469-1.141l-0.016-3.547h-1.156q-0.719 0-1.219-0.5t-0.5-1.219v-10.406h14.344zM14.547 4.391q1.672 0.859 2.672 2.398t1 3.367h-14.453q0-1.828 1-3.367t2.688-2.398l-1.109-2.047q-0.109-0.203 0.078-0.313 0.203-0.094 0.313 0.094l1.125 2.063q1.484-0.656 3.141-0.656t3.141 0.656l1.125-2.063q0.109-0.187 0.313-0.094 0.187 0.109 0.078 0.313zM22 12.016v6.719q0 0.672-0.469 1.141t-1.141 0.469q-0.656 0-1.125-0.469t-0.469-1.141v-6.719q0-0.672 0.469-1.133t1.125-0.461q0.672 0 1.141 0.461t0.469 1.133z"></path>
</symbol>
</defs>
</svg>
